<?xml version="1.0" encoding="UTF-8" standalone="no"?><!DOCTYPE svg PUBLIC "-//W3C//DTD SVG 1.1//EN" "http://www.w3.org/Graphics/SVG/1.1/DTD/svg11.dtd"><!-- Generated by graphviz version 2.40.1 (20161225.0304)
 --><!-- Title: Snowtricks Pages: 1 --><svg xmlns="http://www.w3.org/2000/svg" xmlns:xlink="http://www.w3.org/1999/xlink" width="502pt" height="625pt" viewBox="0.00 0.00 502.08 625.40">
<g id="graph0" class="graph" transform="scale(1 1) rotate(0) translate(4 621.4)">
<title>Snowtricks</title>
<polygon fill="#ffffff" stroke="transparent" points="-4,4 -4,-621.4 498.0765,-621.4 498.0765,4 -4,4"/>
<!-- categories -->
<g id="node1" class="node">
<title>categories</title>
<polygon fill="none" stroke="#000000" points="0,-42.5 0,-133.7 129.4966,-133.7 129.4966,-42.5 0,-42.5"/>
<text text-anchor="middle" x="64.7483" y="-117.1" font-family="Times,serif" font-size="14.00" fill="#000000">categories</text>
<polyline fill="none" stroke="#000000" points="0,-108.9 129.4966,-108.9 "/>
<text text-anchor="start" x="8" y="-92.3" font-family="Times,serif" font-size="14.00" fill="#000000">name : varchar(255)</text>
<text text-anchor="start" x="8" y="-75.5" font-family="Times,serif" font-size="14.00" fill="#000000"> slug : varchar(255)</text>
<polyline fill="none" stroke="#000000" points="0,-67.3 129.4966,-67.3 "/>
<text text-anchor="start" x="8" y="-50.7" font-family="Times,serif" font-size="14.00" fill="#000000">id : int</text>
</g>
<!-- comment -->
<g id="node2" class="node">
<title>comment</title>
<polygon fill="none" stroke="#000000" points="260.6925,-492.1 260.6925,-616.9 396.8041,-616.9 396.8041,-492.1 260.6925,-492.1"/>
<text text-anchor="middle" x="328.7483" y="-600.3" font-family="Times,serif" font-size="14.00" fill="#000000">comment</text>
<polyline fill="none" stroke="#000000" points="260.6925,-592.1 396.8041,-592.1 "/>
<text text-anchor="start" x="268.6925" y="-575.5" font-family="Times,serif" font-size="14.00" fill="#000000">author_id_id : int</text>
<text text-anchor="start" x="268.6925" y="-558.7" font-family="Times,serif" font-size="14.00" fill="#000000"> trick_id_id : int</text>
<text text-anchor="start" x="268.6925" y="-541.9" font-family="Times,serif" font-size="14.00" fill="#000000"> content : longtext</text>
<text text-anchor="start" x="268.6925" y="-525.1" font-family="Times,serif" font-size="14.00" fill="#000000"> created_at : datetime</text>
<polyline fill="none" stroke="#000000" points="260.6925,-516.9 396.8041,-516.9 "/>
<text text-anchor="start" x="268.6925" y="-500.3" font-family="Times,serif" font-size="14.00" fill="#000000">id : int</text>
</g>
<!-- tricks -->
<g id="node3" class="node">
<title>tricks</title>
<polygon fill="none" stroke="#000000" points="63.5067,-246.3 63.5067,-421.5 201.9899,-421.5 201.9899,-246.3 63.5067,-246.3"/>
<text text-anchor="middle" x="132.7483" y="-404.9" font-family="Times,serif" font-size="14.00" fill="#000000">tricks</text>
<polyline fill="none" stroke="#000000" points="63.5067,-396.7 201.9899,-396.7 "/>
<text text-anchor="start" x="71.5067" y="-380.1" font-family="Times,serif" font-size="14.00" fill="#000000">category_id_id : int</text>
<text text-anchor="start" x="71.5067" y="-363.3" font-family="Times,serif" font-size="14.00" fill="#000000"> author_id_id : int</text>
<text text-anchor="start" x="71.5067" y="-346.5" font-family="Times,serif" font-size="14.00" fill="#000000"> main_image_id : int</text>
<text text-anchor="start" x="71.5067" y="-329.7" font-family="Times,serif" font-size="14.00" fill="#000000"> name : varchar(255)</text>
<text text-anchor="start" x="71.5067" y="-312.9" font-family="Times,serif" font-size="14.00" fill="#000000"> description : longtext</text>
<text text-anchor="start" x="71.5067" y="-296.1" font-family="Times,serif" font-size="14.00" fill="#000000"> slug : varchar(255)</text>
<text text-anchor="start" x="71.5067" y="-279.3" font-family="Times,serif" font-size="14.00" fill="#000000"> created_at : datetime</text>
<polyline fill="none" stroke="#000000" points="63.5067,-271.1 201.9899,-271.1 "/>
<text text-anchor="start" x="71.5067" y="-254.5" font-family="Times,serif" font-size="14.00" fill="#000000">id : int</text>
</g>
<!-- comment&#45;&gt;tricks -->
<g id="edge1" class="edge">
<title>comment-&gt;tricks</title>
<path fill="none" stroke="#595959" d="M260.4059,-495C212.072,-495 155.8288,-495 155.8288,-495 155.8288,-495 155.8288,-431.5215 155.8288,-431.5215"/>
<polygon fill="#595959" stroke="#595959" points="159.3289,-431.5215 155.8288,-421.5215 152.3289,-431.5215 159.3289,-431.5215"/>
<text text-anchor="middle" x="321.8577" y="-461" font-family="Times,serif" font-size="14.00" fill="#000000">trick_id_id:id</text>
<text text-anchor="middle" x="321.8577" y="-444.2" font-family="Times,serif" font-size="14.00" fill="#000000">N</text>
<text text-anchor="middle" x="152.3288" y="-425.7215" font-family="Times,serif" font-size="14.00" fill="#000000">1</text>
</g>
<!-- user -->
<g id="node4" class="node">
<title>user</title>
<polygon fill="none" stroke="#000000" points="214.0901,-.5 214.0901,-175.7 377.4065,-175.7 377.4065,-.5 214.0901,-.5"/>
<text text-anchor="middle" x="295.7483" y="-159.1" font-family="Times,serif" font-size="14.00" fill="#000000">user</text>
<polyline fill="none" stroke="#000000" points="214.0901,-150.9 377.4065,-150.9 "/>
<text text-anchor="start" x="222.0901" y="-134.3" font-family="Times,serif" font-size="14.00" fill="#000000">email : varchar(255)</text>
<text text-anchor="start" x="222.0901" y="-117.5" font-family="Times,serif" font-size="14.00" fill="#000000"> created_at : datetime</text>
<text text-anchor="start" x="222.0901" y="-100.7" font-family="Times,serif" font-size="14.00" fill="#000000"> password : varchar(255)</text>
<text text-anchor="start" x="222.0901" y="-83.9" font-family="Times,serif" font-size="14.00" fill="#000000"> user_name : varchar(255)</text>
<text text-anchor="start" x="222.0901" y="-67.1" font-family="Times,serif" font-size="14.00" fill="#000000"> is_verified : tinyint(1)</text>
<text text-anchor="start" x="222.0901" y="-50.3" font-family="Times,serif" font-size="14.00" fill="#000000"> token : binary(16)</text>
<text text-anchor="start" x="222.0901" y="-33.5" font-family="Times,serif" font-size="14.00" fill="#000000"> roles : json</text>
<polyline fill="none" stroke="#000000" points="214.0901,-25.3 377.4065,-25.3 "/>
<text text-anchor="start" x="222.0901" y="-8.7" font-family="Times,serif" font-size="14.00" fill="#000000">id : int</text>
</g>
<!-- comment&#45;&gt;user -->
<g id="edge2" class="edge">
<title>comment-&gt;user</title>
<path fill="none" stroke="#595959" d="M387.1053,-492.0698C387.1053,-364.9528 387.1053,-88 387.1053,-88 387.1053,-88 386.162,-88 386.162,-88"/>
<polygon fill="#595959" stroke="#595959" points="387.6726,-84.5001 377.6726,-88 387.6725,-91.5001 387.6726,-84.5001"/>
<text text-anchor="middle" x="450.9124" y="-338.1" font-family="Times,serif" font-size="14.00" fill="#000000">author_id_id:id</text>
<text text-anchor="middle" x="450.9124" y="-321.3" font-family="Times,serif" font-size="14.00" fill="#000000">N</text>
<text text-anchor="middle" x="381.1726" y="-92.2" font-family="Times,serif" font-size="14.00" fill="#000000">1</text>
</g>
<!-- tricks&#45;&gt;categories -->
<g id="edge3" class="edge">
<title>tricks-&gt;categories</title>
<path fill="none" stroke="#595959" d="M96.5016,-246.2016C96.5016,-246.2016 96.5016,-143.9947 96.5016,-143.9947"/>
<polygon fill="#595959" stroke="#595959" points="100.0017,-143.9947 96.5016,-133.9947 93.0017,-143.9947 100.0017,-143.9947"/>
<text text-anchor="middle" x="114.127" y="-215.2" font-family="Times,serif" font-size="14.00" fill="#000000">category_id_id:id</text>
<text text-anchor="middle" x="114.127" y="-198.4" font-family="Times,serif" font-size="14.00" fill="#000000">N</text>
<text text-anchor="middle" x="93.0016" y="-138.1947" font-family="Times,serif" font-size="14.00" fill="#000000">1</text>
</g>
<!-- tricks&#45;&gt;user -->
<g id="edge4" class="edge">
<title>tricks-&gt;user</title>
<path fill="none" stroke="#595959" d="M165.7432,-246.2843C165.7432,-200.9563 165.7432,-155 165.7432,-155 165.7432,-155 203.783,-155 203.783,-155"/>
<polygon fill="#595959" stroke="#595959" points="203.783,-158.5001 213.783,-155 203.7829,-151.5001 203.783,-158.5001"/>
<text text-anchor="middle" x="229.9124" y="-215.2" font-family="Times,serif" font-size="14.00" fill="#000000">author_id_id:id</text>
<text text-anchor="middle" x="229.9124" y="-198.4" font-family="Times,serif" font-size="14.00" fill="#000000">N</text>
<text text-anchor="middle" x="210.283" y="-159.2" font-family="Times,serif" font-size="14.00" fill="#000000">1</text>
</g>
<!-- user_profile_picture -->
<g id="node5" class="node">
<title>user_profile_picture</title>
<polygon fill="none" stroke="#000000" points="219.9218,-288.3 219.9218,-379.5 371.5748,-379.5 371.5748,-288.3 219.9218,-288.3"/>
<text text-anchor="middle" x="295.7483" y="-362.9" font-family="Times,serif" font-size="14.00" fill="#000000">user_profile_picture</text>
<polyline fill="none" stroke="#000000" points="219.9218,-354.7 371.5748,-354.7 "/>
<text text-anchor="start" x="227.9218" y="-338.1" font-family="Times,serif" font-size="14.00" fill="#000000">user_id : int</text>
<text text-anchor="start" x="227.9218" y="-321.3" font-family="Times,serif" font-size="14.00" fill="#000000"> filename : varchar(255)</text>
<polyline fill="none" stroke="#000000" points="219.9218,-313.1 371.5748,-313.1 "/>
<text text-anchor="start" x="227.9218" y="-296.5" font-family="Times,serif" font-size="14.00" fill="#000000">id : int</text>
</g>
<!-- user_profile_picture&#45;&gt;user -->
<g id="edge5" class="edge">
<title>user_profile_picture-&gt;user</title>
<path fill="none" stroke="#595959" d="M295.7483,-288.243C295.7483,-288.243 295.7483,-185.8079 295.7483,-185.8079"/>
<polygon fill="#595959" stroke="#595959" points="299.2484,-185.8079 295.7483,-175.8079 292.2484,-185.808 299.2484,-185.8079"/>
<text text-anchor="middle" x="323.7441" y="-215.2" font-family="Times,serif" font-size="14.00" fill="#000000">user_id:id</text>
<text text-anchor="middle" x="323.7441" y="-198.4" font-family="Times,serif" font-size="14.00" fill="#000000">1</text>
<text text-anchor="middle" x="292.2483" y="-180.0079" font-family="Times,serif" font-size="14.00" fill="#000000">1</text>
</g>
<!-- video -->
<g id="node6" class="node">
<title>video</title>
<polygon fill="none" stroke="#000000" points="56.912,-500.5 56.912,-608.5 208.5846,-608.5 208.5846,-500.5 56.912,-500.5"/>
<text text-anchor="middle" x="132.7483" y="-591.9" font-family="Times,serif" font-size="14.00" fill="#000000">video</text>
<polyline fill="none" stroke="#000000" points="56.912,-583.7 208.5846,-583.7 "/>
<text text-anchor="start" x="64.912" y="-567.1" font-family="Times,serif" font-size="14.00" fill="#000000">trick_id : int</text>
<text text-anchor="start" x="64.912" y="-550.3" font-family="Times,serif" font-size="14.00" fill="#000000"> url : varchar(500)</text>
<text text-anchor="start" x="64.912" y="-533.5" font-family="Times,serif" font-size="14.00" fill="#000000"> video_id : varchar(255)</text>
<polyline fill="none" stroke="#000000" points="56.912,-525.3 208.5846,-525.3 "/>
<text text-anchor="start" x="64.912" y="-508.7" font-family="Times,serif" font-size="14.00" fill="#000000">id : int</text>
</g>
<!-- video&#45;&gt;tricks -->
<g id="edge6" class="edge">
<title>video-&gt;tricks</title>
<path fill="none" stroke="#595959" d="M109.6678,-500.2526C109.6678,-500.2526 109.6678,-431.911 109.6678,-431.911"/>
<polygon fill="#595959" stroke="#595959" points="113.1679,-431.911 109.6678,-421.911 106.1679,-431.911 113.1679,-431.911"/>
<text text-anchor="middle" x="161.9124" y="-461" font-family="Times,serif" font-size="14.00" fill="#000000">trick_id:id</text>
<text text-anchor="middle" x="161.9124" y="-444.2" font-family="Times,serif" font-size="14.00" fill="#000000">N</text>
<text text-anchor="middle" x="106.1678" y="-426.111" font-family="Times,serif" font-size="14.00" fill="#000000">1</text>
</g>
</g>
</svg>